<svg width="23" height="20" viewBox="0 0 23 20" fill="none" xmlns="http://www.w3.org/2000/svg">
<path d="M22.0685 0.276009C21.6935 -0.0419912 21.1045 -0.0874911 20.4955 0.157009H20.4945C19.854 0.414009 2.364 7.91601 1.652 8.22251C1.5225 8.26751 0.3915 8.68951 0.508 9.62951C0.612 10.477 1.521 10.828 1.632 10.8685L6.0785 12.391C6.3735 13.373 7.461 16.996 7.7015 17.77C7.8515 18.2525 8.096 18.8865 8.5245 19.017C8.9005 19.162 9.2745 19.0295 9.5165 18.8395L12.235 16.318L16.6235 19.7405L16.728 19.803C17.026 19.935 17.3115 20.001 17.584 20.001C17.7945 20.001 17.9965 19.9615 18.1895 19.8825C18.847 19.6125 19.11 18.986 19.1375 18.915L22.4155 1.87651C22.6155 0.966509 22.3375 0.503509 22.0685 0.276009ZM10 13L8.5 17L7 12L18.5 3.50001L10 13Z" fill="white"/>
</svg>
