<svg width="25" height="25" viewBox="0 0 25 25" fill="none" xmlns="http://www.w3.org/2000/svg">
<path d="M12.5 1C6.15465 1 1 6.15465 1 12.5C1 18.8454 6.15465 24 12.5 24C18.8454 24 24 18.8454 24 12.5C24 6.15465 18.8454 1 12.5 1ZM12.5 2C18.3049 2 23 6.69509 23 12.5C23 18.3049 18.3049 23 12.5 23C6.69509 23 2 18.3049 2 12.5C2 6.69509 6.69509 2 12.5 2ZM7.50098 9L5.4834 9.00098C5.4834 9.00098 5.36795 8.99447 5.22852 9.0127C5.08908 9.03092 4.8831 9.03938 4.67188 9.27832L4.6709 9.2793L4.66992 9.28027C4.48204 9.49513 4.48921 9.74521 4.5127 9.88281C4.5361 10.0199 4.58848 10.1223 4.58887 10.123V10.124C4.60826 10.1716 6.07319 13.761 7.91992 15.6895C9.22255 17.0506 10.6157 17.5 11.8564 17.5H12.5C12.7117 17.5 12.9008 17.4904 13.1104 17.3818C13.3199 17.2733 13.5 16.9738 13.5 16.7412C13.5 16.4906 13.5062 16.2477 13.5381 16.1123C13.5679 15.9859 13.5564 16.0169 13.5684 16.0166C13.5803 16.0192 13.6022 16.0243 13.6436 16.043C13.7328 16.0833 13.8706 16.1733 14.0234 16.292C14.3287 16.529 14.6903 16.8728 15.0957 17.1387C15.6764 17.5236 16.3066 17.5 16.3066 17.5H18.3848L18.4072 17.498C18.4072 17.498 18.7261 17.4908 19.0537 17.29C19.2175 17.1897 19.4122 17.0055 19.4775 16.7295C19.5429 16.4535 19.4594 16.1639 19.2988 15.9092C19.2402 15.8158 18.9553 15.4029 17.8184 14.3936C17.5246 14.133 17.3243 13.9486 17.2451 13.8506C17.217 13.8158 17.2146 13.8191 17.209 13.8174C17.2156 13.8003 17.2813 13.662 17.457 13.4336C17.6402 13.1956 17.9185 12.864 18.2764 12.4082C18.7325 11.8271 19.0525 11.2684 19.2539 10.7969C19.3546 10.5611 19.426 10.3472 19.4688 10.1533C19.5115 9.95941 19.5456 9.79823 19.4824 9.56836C19.4353 9.39724 19.3072 9.24398 19.1816 9.16309C19.0561 9.08219 18.939 9.05172 18.834 9.03223C18.6239 8.99325 18.4385 9 18.2656 9C17.9037 9 16.2949 9.0127 16.1621 9.0127C16.0063 9.0127 15.7576 9.0776 15.6426 9.14355C15.3569 9.30713 15.2676 9.53125 15.2676 9.53125L15.2402 9.5791L15.2246 9.63281C15.2246 9.63281 14.8583 10.8179 14.4814 11.4287H14.4805C14.0374 12.1483 13.7069 12.4337 13.5615 12.5146C13.5461 12.5232 13.5546 12.5187 13.5439 12.5244C13.5326 12.4913 13.5182 12.4457 13.5088 12.3613C13.4875 12.1712 13.5 11.9035 13.5 11.6445C13.5 10.9273 13.5539 10.4801 13.4941 10.0566C13.4643 9.84492 13.3883 9.60913 13.2148 9.42773C13.0414 9.24634 12.8174 9.15705 12.5938 9.10547H12.5928C12.3597 9.05178 12.1084 9.00568 11.5049 9C10.7359 8.99283 10.2351 9.01667 9.79004 9.21484L9.78516 9.21777L9.78125 9.21973C9.60541 9.30232 9.4668 9.397 9.34473 9.52344C9.28369 9.58666 9.21128 9.6327 9.16113 9.83398C9.13606 9.93463 9.13331 10.125 9.24707 10.2793C9.36083 10.4335 9.52026 10.4801 9.61426 10.4922C9.59692 10.4899 9.68821 10.51 9.75879 10.5449C9.82937 10.5798 9.89065 10.6301 9.90625 10.6504V10.6514C9.89972 10.6429 9.9675 10.8113 9.98535 10.9648C10.0032 11.1184 10 11.2422 10 11.2422L9.99902 11.2725L10.002 11.3027C10.002 11.3027 10.0326 11.6425 10.0166 11.9932C10.0086 12.1685 9.98641 12.345 9.95703 12.4531C9.95548 12.4588 9.95477 12.4568 9.95312 12.4619C9.82794 12.3745 9.53928 12.0698 9.1416 11.4131C8.77399 10.8056 8.42969 9.71289 8.42969 9.71289L8.42188 9.68848L8.41309 9.66504C8.41309 9.66504 8.34889 9.42095 8.06543 9.22168C7.79974 9.03464 7.54688 9.00879 7.54688 9.00879L7.50098 9ZM7.38477 10C7.41337 10.0105 7.47316 10.032 7.48438 10.0371L7.47266 10.002C7.47266 10.002 7.48805 10.0373 7.48828 10.0381C7.48841 10.0382 7.49018 10.039 7.49023 10.0391V10.04H7.49121C7.46608 10.0225 7.48738 10.0399 7.49023 10.0439C7.50404 10.0911 7.80935 11.1427 8.28613 11.9307C8.72047 12.648 9.04136 13.0498 9.3916 13.29C9.7415 13.53 10.212 13.5053 10.4512 13.3809C10.7708 13.2149 10.8601 12.9421 10.9219 12.7148C10.9836 12.4876 11.0056 12.2571 11.0156 12.0391C11.0347 11.6231 11.0021 11.2828 10.999 11.249C10.9995 11.2302 11.004 11.0677 10.9785 10.8486C10.9529 10.6279 10.9068 10.3536 10.7109 10.0781C10.9304 10.0455 11.0522 9.99587 11.4951 10C12.0599 10.0053 12.1459 10.0289 12.3682 10.0801C12.4892 10.108 12.5027 10.1311 12.4912 10.1191C12.4798 10.1072 12.4902 10.0991 12.5039 10.1963C12.5313 10.3905 12.5 10.8887 12.5 11.6445C12.5 11.8576 12.4794 12.158 12.5146 12.4727C12.5498 12.7871 12.6481 13.1894 13.0283 13.4248C13.245 13.5589 13.6588 13.605 14.0488 13.3877C14.4389 13.1704 14.8391 12.7536 15.332 11.9531C15.8189 11.1639 16.1101 10.1263 16.1416 10.0166C16.1416 10.0166 16.1472 10.013 16.1504 10.0107C16.1592 10.0112 16.148 10.0127 16.1621 10.0127C16.3473 10.0127 17.9275 10 18.2656 10C18.3586 10 18.3995 10.005 18.4688 10.0078C18.4408 10.1158 18.4031 10.2415 18.334 10.4033C18.1715 10.7837 17.8926 11.2771 17.4893 11.791C17.1416 12.2337 16.8716 12.5549 16.665 12.8232C16.4585 13.0916 16.2963 13.3033 16.2285 13.6094C16.1608 13.9155 16.29 14.2607 16.4668 14.4795C16.6435 14.6983 16.8623 14.8826 17.1543 15.1416C18.2543 16.1182 18.4348 16.4138 18.4521 16.4414V16.4424C18.4707 16.4718 18.4587 16.4422 18.4658 16.457C18.4034 16.4765 18.3292 16.4985 18.3223 16.5H16.2988H16.2959C16.2959 16.5 15.9237 16.4878 15.6475 16.3047L15.6465 16.3037H15.6455C15.3532 16.1123 15 15.784 14.6367 15.502C14.4551 15.3609 14.2702 15.2288 14.0557 15.1318C13.8412 15.0349 13.5693 14.9661 13.2832 15.0518C12.8691 15.1757 12.6392 15.5698 12.5654 15.8828C12.5124 16.1075 12.5203 16.3029 12.5186 16.499C12.5043 16.4998 12.5166 16.5 12.5 16.5H11.8564C10.8402 16.5 9.78295 16.1898 8.64258 14.998C7.15999 13.4498 5.83723 10.4558 5.63867 10.001L7.38477 10ZM16.1064 10.0039C16.0974 10.0059 16.1233 10.0079 16.1445 10.0098C16.1417 10.0113 16.1448 10.0084 16.1406 10.0107C16.1402 10.0024 16.1186 10.0012 16.1064 10.0039Z" fill="white"/>
</svg>
